<svg xmlns="http://www.w3.org/2000/svg" viewBox="0 0 1039.33 293.53"><defs><style>.cls-1{fill:#fff;}</style></defs><g id="图层_2" data-name="图层 2"><g id="图层_1-2" data-name="图层 1"><path class="cls-1" d="M253.58,235.49h10.11a146.76,146.76,0,1,1,.07-177.36H253.64a138.85,138.85,0,1,0-.06,177.36Z"/><path class="cls-1" d="M204.16,235.49H244.8a132.22,132.22,0,1,1,.07-177.36H204.28a105.66,105.66,0,1,0-.12,177.36Z"/><polygon class="cls-1" points="270.96 195.66 266.09 226.64 124.66 226.64 119.79 195.66 117.55 181.36 99.49 66.38 137.3 66.38 155.35 181.36 157.6 195.66 270.96 195.66"/><path class="cls-1" d="M221.6,110.66a13.56,13.56,0,0,0,0,27.11h9.57a7,7,0,0,1,0,14H221.6a27.56,27.56,0,0,1,0-55.11h64.9l4.76-30.28H152.5l18.06,115H273.2l11.1-70.7Z"/><path class="cls-1" d="M346,171.22l18.34-70.88h30.95L377,171.22Zm21.39-84.83L366.09,43H395.7L397,86.39Zm79.67-16.62.76-6.49H411.94l2.29-16.62h35.92l.38-1.91-5.16-7.26h38.21l-1.34,9.17h29.42l-2.29,16.62H480l-1,6.49h36.88l-2.68,18.15H497.33l12.8,24.84H504.4l-3,22-30,16.05,8,7.64h27.51l-2.3,16.05H470l-17.57-13.38L427,174.66H394.17l2.29-15.86h20.06l19.3-10.7-12.61-9.55H398l20.82-26.94H407.35L421.3,87.92h-17L407,69.77Zm1.34,40.31h35.34L472.31,87.92H445.94l-10.7,18.15h16.24Zm-9,15.29,15.66,12.8,16.24-12.8Z"/><path class="cls-1" d="M519.11,174.85l17.58-54.07h30l-17.57,54.07ZM538,113.52l-2.11-32.67h30.19l2.1,32.67Zm5.54-39.92-2.11-32.67h30.19l2.1,32.67ZM694.49,40.93,692.2,57.36H607.76L587.12,174.85H561.91l22.54-127-3.82-6.87ZM623.8,131.48l-12,40.12H593.05l12.22-40.12Zm-9.36,43.37,12.42-17.77,4.39-32.67H602.6l7.64-55H633l5.16-7.64h24.65l-5,7.64h31.33l-7.64,55h-26l-5.16,37.83a17.46,17.46,0,0,1-3.73,9.07,8.68,8.68,0,0,1-6.78,3.54Zm49.48-65.34,1-6.69H625.33l-1,6.69ZM627.05,90.79H666.6l.95-6.69H628Zm51.2,40.69.58,39.93H659.91l-.57-39.93Z"/><path class="cls-1" d="M712.07,108.56l1.53-10.13h-9.36l2.48-18.15h48.91l-2.49,18.15H742.63l-1.52,10.13h12.41L751,126.9H738.43l-3,22.35,12.22-2.68-2.48,18.15-42.41,10.13,6.87-47.95h-13l2.49-18.34Zm37.06-71.07L743.4,51.24h16.43l-2.48,18.15H735.76l-2.87,6.88h-29l13.76-33-4.78-5.73ZM813.7,174.66l9.36-13.18.77-6.12H807.78l-3.63-15.66-8.21,15.66H779.89l-2.68,19.3H748.94L767.66,40.73H868.34l-17,121.32a13.8,13.8,0,0,1-5.06,9.07,14.81,14.81,0,0,1-9.65,3.54Zm-32.28-29.81L798,113,790.4,79.71Zm54.45-74.12,1.71-11.85H793.45l-1.72,11.85h18.73l2.86,12.8L820,70.73Zm-9.75,69.35,8.22-58.27-14.91,28.66Z"/><path class="cls-1" d="M890.69,109.89l1-7.26h-7.26l2.48-18.15h43.56L928,102.63h-7.26l-1,7.26h10.89L928,128H917.06l-2.87,21.21,11.27-3.06L923,164.34l-41.46,10.51L888,128H877.13l2.67-18.15Zm38.6-69-6.12,14.52h15.09L935.59,73.6H915.72l-2.86,7.25h-29L898,46.66l-5-5.73Zm98,0-8.6,18.15h20.64l-2.49,18.14h-26.55l-12,25.41h38.59l-2.48,18.15H1020.8l9.93,50.82H996.15l-9.93-50.82h-2.1L960,171.6H925.46l24.27-50.82h-17l2.49-18.15H962l12-25.41h-6.11l-3.25,10.89H937.31l11.46-37.25-5.35-6.3H978l-4.58,14.52h9.17l5.92-12.61-4.78-5.54Z"/><path class="cls-1" d="M389.12,267.1H352V208.92h14.84v45.36h22.3Z"/><path class="cls-1" d="M411.75,208.92V267.1H396.91V208.92Z"/><path class="cls-1" d="M446.12,208.92l15,38.9h.5v-38.9h14.5V267.1H455.59l-16.76-41.41h-.5V267.1H423.65V208.92Z"/><path class="cls-1" d="M494,215c5-4.61,12.32-6.95,22-6.95,5.7,0,12.24.75,15.85,2V223a43,43,0,0,0-14.59-2.35c-10.48,0-14.42,4.28-14.42,17.35.17,14.09,2.6,17.19,13.75,17.53a32.12,32.12,0,0,0,4.86-.26V244.89h-9.13V232.48h22.8v32.78a52.72,52.72,0,0,1-8.89,1.84,64.14,64.14,0,0,1-10.48.84c-19.45-.17-28.92-5.95-29.17-29.93C486.53,227.28,489,219.65,494,215Z"/><path class="cls-1" d="M562.15,208.92h17.43l11.15,22h.51l11.82-22h16.76l-21.37,35.55V267.1h-15V244.89Z"/><path class="cls-1" d="M625.69,208.92h14.84v37.39c0,5.79,2.51,9,10.48,9,8.13,0,10.65-3.52,10.65-9V208.92h14.75v38.65c0,14.17-8.72,20.37-25.4,20.37s-25.32-4.78-25.32-20.37Z"/><path class="cls-1" d="M702,253.86l-4.53,13.24H682l21.54-58.18h19.95L744.9,267.1H729.14l-4.44-13.24Zm18.69-12.07-6.7-20h-1l-6.87,20Z"/><path class="cls-1" d="M773.15,208.92l15,38.9h.5v-38.9h14.51V267.1H782.63l-16.77-41.41h-.5V267.1H750.69V208.92Z"/><path class="cls-1" d="M851.45,208.92V267.1H836.62V208.92Z"/><path class="cls-1" d="M882.89,246.82H878.2V267.1H863.36V208.92h21.88c15.42,0,22.46,5.54,22.46,19,0,9.47-3.35,14.92-10.47,17.35l15.92,21.88H895.63ZM882.72,236c7.71,0,10.31-1.84,10.31-8.13,0-6-2.51-7.46-10.31-7.46H878.2V236Z"/><path class="cls-1" d="M943.5,208.09c17.94,0,26.91,6.62,26.91,29.92-.25,23.56-8.8,29.76-26.91,29.93-17.94-.17-26.66-6.37-26.91-29.93C916.84,214.63,925.56,208.17,943.5,208.09ZM954.9,238c0-13.66-2.09-17.85-11.4-17.85s-11.32,4.19-11.32,17.85c.09,13.84,2,17.27,11.32,17.61C953,255.28,954.74,251.85,954.9,238Z"/><path class="cls-1" d="M1003.36,208.92l15,38.9h.51v-38.9h14.5V267.1h-20.54l-16.76-41.41h-.51V267.1H980.89V208.92Z"/></g></g></svg>